<svg width="18" height="19" viewBox="0 0 18 19" fill="none" xmlns="http://www.w3.org/2000/svg">
<path d="M3 14C3 13.2044 3.31607 12.4413 3.87868 11.8787C4.44129 11.3161 5.20435 11 6 11H12C12.7956 11 13.5587 11.3161 14.1213 11.8787C14.6839 12.4413 15 13.2044 15 14C15 14.3978 14.842 14.7794 14.5607 15.0607C14.2794 15.342 13.8978 15.5 13.5 15.5H4.5C4.10218 15.5 3.72064 15.342 3.43934 15.0607C3.15804 14.7794 3 14.3978 3 14Z" stroke="#3A3A3A" stroke-opacity="0.8" stroke-linejoin="round"/>
<path d="M9 8C10.2426 8 11.25 6.99264 11.25 5.75C11.25 4.50736 10.2426 3.5 9 3.5C7.75736 3.5 6.75 4.50736 6.75 5.75C6.75 6.99264 7.75736 8 9 8Z" stroke="#3A3A3A" stroke-opacity="0.8"/>
</svg>
