<svg width="18" height="19" viewBox="0 0 18 19" fill="none" xmlns="http://www.w3.org/2000/svg">
<path fill-rule="evenodd" clip-rule="evenodd" d="M3.36001 1.7002H3.30001C3.02521 1.7002 2.78881 1.7002 2.58001 1.7494C2.25678 1.82663 1.96123 1.99185 1.72613 2.22674C1.49103 2.46163 1.32554 2.75703 1.24801 3.0802C1.20001 3.289 1.20001 3.5242 1.20001 3.8002V6.8002C1.20001 7.075 1.20001 7.31139 1.24921 7.5202C1.32645 7.84343 1.49167 8.13897 1.72656 8.37408C1.96145 8.60918 2.25685 8.77467 2.58001 8.85219C2.78881 8.9002 3.02401 8.9002 3.30001 8.9002H6.30001C6.57481 8.9002 6.81121 8.9002 7.02001 8.851C7.34325 8.77376 7.63879 8.60854 7.8739 8.37365C8.109 8.13876 8.27448 7.84336 8.35201 7.5202C8.40001 7.31139 8.40001 7.07619 8.40001 6.8002V3.8002C8.40001 3.5254 8.40001 3.289 8.35081 3.0802C8.27357 2.75696 8.10836 2.46142 7.87347 2.22631C7.63857 1.99121 7.34318 1.82572 7.02001 1.7482C6.81121 1.7002 6.57601 1.7002 6.30001 1.7002H6.24001H3.36001ZM2.85961 2.917C2.91121 2.905 2.99161 2.9002 3.36001 2.9002H6.24001C6.60961 2.9002 6.68881 2.9038 6.74041 2.917C6.84821 2.94277 6.94676 2.99791 7.02513 3.07628C7.1035 3.15465 7.15863 3.2532 7.18441 3.361C7.19641 3.4114 7.20001 3.4906 7.20001 3.8602V6.74019C7.20001 7.10979 7.19641 7.18899 7.18321 7.2406C7.15743 7.34839 7.1023 7.44694 7.02393 7.52531C6.94556 7.60368 6.84701 7.65882 6.73921 7.6846C6.69001 7.69539 6.61081 7.70019 6.24001 7.70019H3.36001C2.99041 7.70019 2.91121 7.6966 2.85961 7.68339C2.75182 7.65762 2.65327 7.60248 2.57489 7.52411C2.49652 7.44574 2.44139 7.34719 2.41561 7.2394C2.40481 7.1902 2.40001 7.11099 2.40001 6.74019V3.8602C2.40001 3.4906 2.40361 3.4114 2.41681 3.3598C2.44259 3.252 2.49772 3.15345 2.57609 3.07508C2.65447 2.99671 2.75302 2.94157 2.86081 2.9158M11.76 1.7002H11.7C11.4252 1.7002 11.1888 1.7002 10.98 1.7494C10.6568 1.82663 10.3612 1.99185 10.1261 2.22674C9.89103 2.46163 9.72554 2.75703 9.64801 3.0802C9.60001 3.289 9.60001 3.5242 9.60001 3.8002V6.8002C9.60001 7.075 9.60001 7.31139 9.64921 7.5202C9.72645 7.84343 9.89167 8.13897 10.1266 8.37408C10.3615 8.60918 10.6568 8.77467 10.98 8.85219C11.1888 8.9002 11.424 8.9002 11.7 8.9002H14.7C14.9748 8.9002 15.2112 8.9002 15.42 8.851C15.7432 8.77376 16.0388 8.60854 16.2739 8.37365C16.509 8.13876 16.6745 7.84336 16.752 7.5202C16.8 7.31139 16.8 7.07619 16.8 6.8002V3.8002C16.8 3.5254 16.8 3.289 16.7508 3.0802C16.6736 2.75696 16.5084 2.46142 16.2735 2.22631C16.0386 1.99121 15.7432 1.82572 15.42 1.7482C15.2112 1.7002 14.976 1.7002 14.7 1.7002H14.64H11.76ZM11.2596 2.917C11.3112 2.905 11.3916 2.9002 11.76 2.9002H14.64C15.0096 2.9002 15.0888 2.9038 15.1404 2.917C15.2482 2.94277 15.3468 2.99791 15.4251 3.07628C15.5035 3.15465 15.5586 3.2532 15.5844 3.361C15.5964 3.4114 15.6 3.4906 15.6 3.8602V6.74019C15.6 7.10979 15.5952 7.18899 15.5832 7.2406C15.5574 7.34839 15.5023 7.44694 15.4239 7.52531C15.3456 7.60368 15.247 7.65882 15.1392 7.6846C15.0888 7.69659 15.0096 7.70019 14.64 7.70019H11.76C11.3904 7.70019 11.3112 7.6966 11.2596 7.68339C11.1518 7.65762 11.0533 7.60248 10.9749 7.52411C10.8965 7.44574 10.8414 7.34719 10.8156 7.2394C10.8048 7.1902 10.8 7.11099 10.8 6.74019V3.8602C10.8 3.4906 10.8036 3.4114 10.8168 3.3598C10.8426 3.252 10.8977 3.15345 10.9761 3.07508C11.0545 2.99671 11.153 2.94157 11.2608 2.9158M3.30001 10.1002H6.30001C6.57481 10.1002 6.81121 10.1002 7.02001 10.1494C7.34325 10.2266 7.63879 10.3919 7.8739 10.6267C8.109 10.8616 8.27448 11.157 8.35201 11.4802C8.40001 11.689 8.40001 11.9242 8.40001 12.2002V15.2002C8.40001 15.475 8.40001 15.7114 8.35081 15.9202C8.27357 16.2434 8.10836 16.539 7.87347 16.7741C7.63857 17.0092 7.34318 17.1747 7.02001 17.2522C6.81121 17.3002 6.57601 17.3002 6.30001 17.3002H3.30001C3.02521 17.3002 2.78881 17.3002 2.58001 17.251C2.25678 17.1738 1.96123 17.0085 1.72613 16.7736C1.49103 16.5388 1.32554 16.2434 1.24801 15.9202C1.20001 15.7114 1.20001 15.4762 1.20001 15.2002V12.2002C1.20001 11.9254 1.20001 11.689 1.24921 11.4802C1.32645 11.157 1.49167 10.8614 1.72656 10.6263C1.96145 10.3912 2.25685 10.2257 2.58001 10.1482C2.78881 10.1002 3.02401 10.1002 3.30001 10.1002ZM3.36001 11.3002C2.99041 11.3002 2.91121 11.3038 2.85961 11.317C2.75182 11.3428 2.65327 11.3979 2.57489 11.4763C2.49652 11.5546 2.44139 11.6532 2.41561 11.761C2.40481 11.8102 2.40001 11.8894 2.40001 12.2602V15.1402C2.40001 15.5098 2.40361 15.589 2.41681 15.6406C2.44259 15.7484 2.49772 15.8469 2.57609 15.9253C2.65447 16.0037 2.75302 16.0588 2.86081 16.0846C2.91121 16.0966 2.99041 16.1002 3.36001 16.1002H6.24001C6.60961 16.1002 6.68881 16.0954 6.74041 16.0834C6.84821 16.0576 6.94676 16.0025 7.02513 15.9241C7.1035 15.8457 7.15863 15.7472 7.18441 15.6394C7.19641 15.589 7.20001 15.5098 7.20001 15.1402V12.2602C7.20001 11.8906 7.19641 11.8114 7.18321 11.7598C7.15743 11.652 7.1023 11.5534 7.02393 11.4751C6.94556 11.3967 6.84701 11.3416 6.73921 11.3158C6.69001 11.305 6.61081 11.3002 6.24001 11.3002H3.36001ZM11.76 10.1002H11.7C11.4252 10.1002 11.1888 10.1002 10.98 10.1494C10.6568 10.2266 10.3612 10.3919 10.1261 10.6267C9.89103 10.8616 9.72554 11.157 9.64801 11.4802C9.60001 11.689 9.60001 11.9242 9.60001 12.2002V15.2002C9.60001 15.475 9.60001 15.7114 9.64921 15.9202C9.72645 16.2434 9.89167 16.539 10.1266 16.7741C10.3615 17.0092 10.6568 17.1747 10.98 17.2522C11.1888 17.3014 11.4252 17.3014 11.7 17.3014H14.7C14.9748 17.3014 15.2112 17.3014 15.42 17.2522C15.743 17.1748 16.0383 17.0095 16.2732 16.7746C16.5081 16.5397 16.6734 16.2444 16.7508 15.9214C16.8 15.7126 16.8 15.4762 16.8 15.2014V12.2002C16.8 11.9254 16.8 11.689 16.7508 11.4802C16.6736 11.157 16.5084 10.8614 16.2735 10.6263C16.0386 10.3912 15.7432 10.2257 15.42 10.1482C15.2112 10.1002 14.976 10.1002 14.7 10.1002H14.64H11.76ZM11.2596 11.317C11.3112 11.305 11.3916 11.3002 11.76 11.3002H14.64C15.0096 11.3002 15.0888 11.3038 15.1404 11.317C15.2482 11.3428 15.3468 11.3979 15.4251 11.4763C15.5035 11.5546 15.5586 11.6532 15.5844 11.761C15.5964 11.8114 15.6 11.8906 15.6 12.2602V15.1402C15.6 15.5098 15.5952 15.589 15.5832 15.6406C15.5574 15.7484 15.5023 15.8469 15.4239 15.9253C15.3456 16.0037 15.247 16.0588 15.1392 16.0846C15.0888 16.0966 15.0096 16.1002 14.64 16.1002H11.76C11.3904 16.1002 11.3112 16.0954 11.2596 16.0834C11.1518 16.0576 11.0533 16.0025 10.9749 15.9241C10.8965 15.8457 10.8414 15.7472 10.8156 15.6394C10.8048 15.5902 10.8 15.511 10.8 15.1402V12.2602C10.8 11.8906 10.8036 11.8114 10.8168 11.7598C10.8426 11.652 10.8977 11.5534 10.9761 11.4751C11.0545 11.3967 11.153 11.3416 11.2608 11.3158" fill="#3A3A3A" fill-opacity="0.8"/>
</svg>
