<svg width="18" height="19" viewBox="0 0 18 19" fill="none" xmlns="http://www.w3.org/2000/svg">
<g clip-path="url(#clip0_781_1060)">
<path d="M8.4375 3.875C9.13477 3.875 9.79102 4.00684 10.4062 4.27051C11.0215 4.53418 11.5576 4.89746 12.0146 5.36035C12.4717 5.82324 12.832 6.35938 13.0957 6.96875C13.3594 7.57812 13.4941 8.23438 13.5 8.9375C13.5 9.30664 13.4766 9.65234 13.4297 9.97461C13.3828 10.2969 13.3096 10.6045 13.21 10.8975C13.1104 11.1904 12.9814 11.4805 12.8232 11.7676C12.665 12.0547 12.4775 12.3477 12.2607 12.6465C12.0908 12.8809 11.9414 13.0918 11.8125 13.2793C11.6836 13.4668 11.5781 13.6543 11.4961 13.8418C11.4141 14.0293 11.3525 14.2344 11.3115 14.457C11.2705 14.6797 11.25 14.9404 11.25 15.2393V16.8125C11.25 17.0469 11.2061 17.2666 11.1182 17.4717C11.0303 17.6768 10.9102 17.8555 10.7578 18.0078C10.6055 18.1602 10.4268 18.2803 10.2217 18.3682C10.0166 18.4561 9.79688 18.5 9.5625 18.5H7.3125C7.07812 18.5 6.8584 18.4561 6.65332 18.3682C6.44824 18.2803 6.26953 18.1602 6.11719 18.0078C5.96484 17.8555 5.84473 17.6768 5.75684 17.4717C5.66895 17.2666 5.625 17.0469 5.625 16.8125V15.2305C5.625 14.9316 5.60449 14.6738 5.56348 14.457C5.52246 14.2402 5.46094 14.0381 5.37891 13.8506C5.29688 13.6631 5.19141 13.4727 5.0625 13.2793C4.93359 13.0859 4.78418 12.875 4.61426 12.6465C4.39746 12.3477 4.21289 12.0576 4.06055 11.7764C3.9082 11.4951 3.7793 11.2051 3.67383 10.9062C3.56836 10.6074 3.49219 10.2969 3.44531 9.97461C3.39844 9.65234 3.375 9.30664 3.375 8.9375C3.375 8.24023 3.50684 7.58398 3.77051 6.96875C4.03418 6.35352 4.39746 5.81738 4.86035 5.36035C5.32324 4.90332 5.85938 4.54297 6.46875 4.2793C7.07812 4.01562 7.73438 3.88086 8.4375 3.875ZM10.125 16.8125V16.25H6.75V16.8125C6.75 16.9648 6.80566 17.0967 6.91699 17.208C7.02832 17.3193 7.16016 17.375 7.3125 17.375H9.5625C9.71484 17.375 9.84668 17.3193 9.95801 17.208C10.0693 17.0967 10.125 16.9648 10.125 16.8125ZM12.375 8.9375C12.375 8.39258 12.2725 7.88281 12.0674 7.4082C11.8623 6.93359 11.5811 6.51465 11.2236 6.15137C10.8662 5.78809 10.4502 5.50684 9.97559 5.30762C9.50098 5.1084 8.98828 5.00586 8.4375 5C7.89258 5 7.38281 5.10254 6.9082 5.30762C6.43359 5.5127 6.01465 5.79395 5.65137 6.15137C5.28809 6.50879 5.00684 6.9248 4.80762 7.39941C4.6084 7.87402 4.50586 8.38672 4.5 8.9375C4.5 9.45898 4.55273 9.90723 4.6582 10.2822C4.76367 10.6572 4.90137 10.9912 5.07129 11.2842C5.24121 11.5771 5.41992 11.8525 5.60742 12.1104C5.79492 12.3682 5.97363 12.6377 6.14355 12.9189C6.31348 13.2002 6.4541 13.5166 6.56543 13.8682C6.67676 14.2197 6.73828 14.6387 6.75 15.125H10.125C10.1309 14.6387 10.1895 14.2227 10.3008 13.877C10.4121 13.5312 10.5527 13.2148 10.7227 12.9277C10.8926 12.6406 11.0713 12.3711 11.2588 12.1191C11.4463 11.8672 11.625 11.5918 11.7949 11.293C11.9648 10.9941 12.1025 10.6572 12.208 10.2822C12.3135 9.90723 12.3691 9.45898 12.375 8.9375ZM8.4375 2.75C8.28516 2.75 8.15332 2.69434 8.04199 2.58301C7.93066 2.47168 7.875 2.33984 7.875 2.1875V1.0625C7.875 0.910156 7.93066 0.77832 8.04199 0.666992C8.15332 0.555664 8.28516 0.5 8.4375 0.5C8.58984 0.5 8.72168 0.555664 8.83301 0.666992C8.94434 0.77832 9 0.910156 9 1.0625V2.1875C9 2.33984 8.94434 2.47168 8.83301 2.58301C8.72168 2.69434 8.58984 2.75 8.4375 2.75ZM1.6875 8.65625H0.5625C0.410156 8.65625 0.27832 8.60059 0.166992 8.48926C0.0556641 8.37793 0 8.24609 0 8.09375C0 7.94141 0.0556641 7.80957 0.166992 7.69824C0.27832 7.58691 0.410156 7.53125 0.5625 7.53125H1.6875C1.83984 7.53125 1.97168 7.58691 2.08301 7.69824C2.19434 7.80957 2.25 7.94141 2.25 8.09375C2.25 8.24609 2.19434 8.37793 2.08301 8.48926C1.97168 8.60059 1.83984 8.65625 1.6875 8.65625ZM2.15332 10.9502C2.30566 10.9502 2.4375 11.0059 2.54883 11.1172C2.66016 11.2285 2.71582 11.3633 2.71582 11.5215C2.71582 11.6387 2.68359 11.7412 2.61914 11.8291C2.55469 11.917 2.4668 11.9873 2.35547 12.04C2.29102 12.0693 2.20312 12.1074 2.0918 12.1543C1.98047 12.2012 1.86035 12.251 1.73145 12.3037C1.60254 12.3564 1.48535 12.4004 1.37988 12.4355C1.27441 12.4707 1.18066 12.4912 1.09863 12.4971C0.946289 12.4971 0.814453 12.4414 0.703125 12.3301C0.591797 12.2188 0.536133 12.084 0.536133 11.9258C0.536133 11.8086 0.568359 11.7061 0.632812 11.6182C0.697266 11.5303 0.785156 11.46 0.896484 11.4072C0.960938 11.3838 1.04883 11.3457 1.16016 11.293C1.27148 11.2402 1.3916 11.1904 1.52051 11.1436C1.64941 11.0967 1.7666 11.0527 1.87207 11.0117C1.97754 10.9707 2.07129 10.9502 2.15332 10.9502ZM3.48926 5.28125C3.48926 5.43359 3.43359 5.56543 3.32227 5.67676C3.21094 5.78809 3.0791 5.84375 2.92676 5.84375C2.82129 5.84375 2.72461 5.81738 2.63672 5.76465L1.67871 5.17578C1.59668 5.12305 1.53223 5.05566 1.48535 4.97363C1.43848 4.8916 1.41211 4.79785 1.40625 4.69238C1.40625 4.54004 1.46191 4.4082 1.57324 4.29688C1.68457 4.18555 1.81641 4.12988 1.96875 4.12988C2.0625 4.12988 2.15918 4.15918 2.25879 4.21777L3.22559 4.79785C3.30762 4.84473 3.37207 4.91211 3.41895 5C3.46582 5.08789 3.48926 5.18164 3.48926 5.28125ZM4.21875 2.04688C4.21875 1.89453 4.27441 1.7627 4.38574 1.65137C4.49707 1.54004 4.62891 1.48438 4.78125 1.48438C4.88086 1.48438 4.97461 1.51074 5.0625 1.56348C5.15039 1.61621 5.2207 1.68652 5.27344 1.77441L5.81836 2.75879C5.86523 2.84082 5.88867 2.92871 5.88867 3.02246C5.88867 3.18066 5.83301 3.31543 5.72168 3.42676C5.61035 3.53809 5.47852 3.59375 5.32617 3.59375C5.22656 3.59375 5.13281 3.56738 5.04492 3.51465C4.95703 3.46191 4.88672 3.3916 4.83398 3.30371L4.28906 2.31934C4.24219 2.2373 4.21875 2.14648 4.21875 2.04688ZM16.3125 7.53125C16.4648 7.53125 16.5967 7.58691 16.708 7.69824C16.8193 7.80957 16.875 7.94141 16.875 8.09375C16.875 8.24609 16.8193 8.37793 16.708 8.48926C16.5967 8.60059 16.4648 8.65625 16.312  5 8.65625H15.1875C15.0352 8.65625 14.9033 8.60059 14.792 8.48926C14.6807 8.37793 14.625 8.24609 14.625 8.09375C14.625 7.94141 14.6807 7.80957 14.792 7.69824C14.9033 7.58691 15.0352 7.53125 15.1875 7.53125H16.3125ZM16.3301 11.9346C16.3301 12.0869 16.2744 12.2188 16.1631 12.3301C16.0518 12.4414 15.9199 12.4971 15.7676 12.4971C15.7031 12.4971 15.6152 12.4795 15.5039 12.4443C15.3926 12.4092 15.2725 12.3623 15.1436 12.3037C15.0146 12.2451 14.8975 12.1953 14.792 12.1543C14.6865 12.1133 14.5957 12.0723 14.5195 12.0312C14.4141 11.9844 14.3291 11.9141 14.2646 11.8203C14.2002 11.7266 14.165 11.6211 14.1592 11.5039C14.1592 11.3457 14.2148 11.2139 14.3262 11.1084C14.4375 11.0029 14.5723 10.9473 14.7305 10.9414C14.8008 10.9414 14.8916 10.9619 15.0029 11.0029C15.1143 11.0439 15.2314 11.0908 15.3545 11.1436C15.4775 11.1963 15.5947 11.249 15.7061 11.3018C15.8174 11.3545 15.9082 11.3926 15.9785 11.416C16.084 11.4629 16.1689 11.5303 16.2334 11.6182C16.2979 11.7061 16.3301 11.8115 16.3301 11.9346ZM13.9482 5.84375C13.7959 5.84375 13.6641 5.78809 13.5527 5.67676C13.4414 5.56543 13.3857 5.43359 13.3857 5.28125C13.3857 5.18164 13.4092 5.08789 13.4561 5C13.5029 4.91211 13.5674 4.84473 13.6494 4.79785L14.6162 4.21777C14.7158 4.15918 14.8125 4.12988 14.9062 4.12988C15.0586 4.12988 15.1904 4.18555 15.3018 4.29688C15.4131 4.4082 15.4688 4.54004 15.4688 4.69238C15.4688 4.79199 15.4453 4.88281 15.3984 4.96484C15.3516 5.04688 15.2842 5.11719 15.1963 5.17578L14.2383 5.76465C14.1504 5.81738 14.0537 5.84375 13.9482 5.84375ZM10.9863 3.02246C10.9863 2.92871 11.0098 2.84082 11.0566 2.75879L11.6016 1.77441C11.6484 1.68652 11.7158 1.61621 11.8037 1.56348C11.8916 1.51074 11.9883 1.48438 12.0938 1.48438C12.2461 1.48438 12.3779 1.54004 12.4893 1.65137C12.6006 1.7627 12.6562 1.89453 12.6562 2.04688C12.6562 2.14648 12.6328 2.2373 12.5859 2.31934L12.041 3.30371C11.9941 3.3916 11.9268 3.46191 11.8389 3.51465C11.751 3.56738 11.6543 3.59375 11.5488 3.59375C11.3965 3.59375 11.2646 3.53809 11.1533 3.42676C11.042 3.31543 10.9863 3.18066 10.9863 3.02246Z" fill="#3A3A3A" fill-opacity="0.8"/>
</g>
<defs>
<clipPath id="clip0_781_1060">
<rect width="18" height="18" fill="white" transform="translate(0 0.5)"/>
</clipPath>
</defs>
</svg>
