
    <svg
      width="18"
      height="19"
      viewBox="0 0 18 19"
      fill="none"
      xmlns="http://www.w3.org/2000/svg"
    >
      <path
        fillRule="evenodd"
        clipRule="evenodd"
        d="M9 6.6875C8.25408 6.6875 7.53871 6.98382 7.01126 7.51126C6.48382 8.03871 6.1875 8.75408 6.1875 9.5C6.1875 10.2459 6.48382 10.9613 7.01126 11.4887C7.53871 12.0162 8.25408 12.3125 9 12.3125C9.74592 12.3125 10.4613 12.0162 10.9887 11.4887C11.5162 10.9613 11.8125 10.2459 11.8125 9.5C11.8125 8.75408 11.5162 8.03871 10.9887 7.51126C10.4613 6.98382 9.74592 6.6875 9 6.6875ZM7.3125 9.5C7.3125 9.05245 7.49029 8.62323 7.80676 8.30676C8.12323 7.99029 8.55245 7.8125 9 7.8125C9.44755 7.8125 9.87678 7.99029 10.1932 8.30676C10.5097 8.62323 10.6875 9.05245 10.6875 9.5C10.6875 9.94755 10.5097 10.3768 10.1932 10.6932C9.87678 11.0097 9.44755 11.1875 9 11.1875C8.55245 11.1875 8.12323 11.0097 7.80676 10.6932C7.49029 10.3768 7.3125 9.94755 7.3125 9.5Z"
        fill="#3A3A3A"
        fillOpacity="0.8"
      />
      <path
        fillRule="evenodd"
        clipRule="evenodd"
        d="M8.98126 1.4375C8.64751 1.4375 8.36926 1.4375 8.14126 1.4525C7.90821 1.4622 7.67837 1.51035 7.46101 1.595C7.2107 1.69857 6.98324 1.85043 6.79163 2.04192C6.60002 2.2334 6.448 2.46076 6.34426 2.711C6.23551 2.9735 6.20626 3.251 6.19426 3.5525C6.19306 3.66277 6.16387 3.77092 6.10943 3.86682C6.05499 3.96271 5.97708 4.04321 5.88301 4.10075C5.78618 4.15363 5.67749 4.18102 5.56715 4.18037C5.45682 4.17971 5.34847 4.15103 5.25226 4.097C4.98526 3.956 4.73026 3.84275 4.44826 3.80525C4.17972 3.76993 3.90685 3.78784 3.64524 3.85798C3.38362 3.92811 3.13838 4.04909 2.92351 4.214C2.74185 4.36016 2.5855 4.53526 2.46076 4.73225C2.33326 4.92275 2.19376 5.1635 2.02726 5.45225L2.00851 5.48525C1.84126 5.774 1.70251 6.01475 1.60201 6.22025C1.49701 6.43475 1.41451 6.64625 1.38451 6.88025C1.31296 7.42249 1.45972 7.97095 1.79251 8.405C1.96576 8.63075 2.19151 8.795 2.44651 8.9555C2.54158 9.01171 2.62079 9.09117 2.67668 9.18643C2.73258 9.28168 2.76332 9.38959 2.76601 9.5C2.76332 9.61041 2.73258 9.71832 2.67668 9.81357C2.62079 9.90882 2.54158 9.98829 2.44651 10.0445C2.19151 10.205 1.96651 10.3693 1.79251 10.595C1.6276 10.8099 1.50662 11.0551 1.43649 11.3167C1.36636 11.5783 1.34844 11.8512 1.38376 12.1198C1.41451 12.3538 1.49626 12.5652 1.60126 12.7797C1.70251 12.9852 1.84126 13.226 2.00851 13.5148L2.02726 13.5477C2.19376 13.8365 2.33326 14.0773 2.46076 14.2677C2.59351 14.465 2.73601 14.6428 2.92351 14.7853C3.13832 14.9503 3.38354 15.0714 3.64516 15.1417C3.90678 15.2119 4.17967 15.23 4.44826 15.1947C4.73026 15.1573 4.98526 15.0448 5.25226 14.903C5.34835 14.849 5.45658 14.8204 5.56678 14.8197C5.67698 14.8191 5.78554 14.8464 5.88226 14.8993C5.97685 14.9563 6.05525 15.0367 6.11 15.1327C6.16474 15.2286 6.19401 15.337 6.19501 15.4475C6.20626 15.749 6.23551 16.0265 6.34501 16.289C6.44858 16.5393 6.60044 16.7668 6.79193 16.9584C6.98342 17.15 7.21077 17.302 7.46101 17.4058C7.67851 17.4958 7.90351 17.531 8.14126 17.5467C8.36926 17.5625 8.64751 17.5625 8.98126 17.5625H9.01876C9.35251 17.5625 9.63076 17.5625 9.85876 17.5475C10.0973 17.531 10.3215 17.4958 10.539 17.405C10.7893 17.3014 11.0168 17.1496 11.2084 16.9581C11.4 16.7666 11.552 16.5392 11.6558 16.289C11.7645 16.0265 11.7938 15.749 11.8058 15.4475C11.8068 15.3371 11.836 15.2288 11.8904 15.1328C11.9449 15.0367 12.0228 14.9561 12.117 14.8985C12.2139 14.8457 12.3226 14.8185 12.433 14.8193C12.5433 14.82 12.6516 14.8489 12.7478 14.903C13.0148 15.044 13.2698 15.1572 13.5518 15.194C14.094 15.2655 14.6425 15.1188 15.0765 14.786C15.264 14.642 15.4065 14.465 15.5393 14.2677C15.6668 14.0773 15.8063 13.8365 15.9728 13.5477L15.9915 13.5148C16.1588 13.226 16.2975 12.9852 16.398 12.7797C16.503 12.5652 16.5855 12.353 16.6155 12.1198C16.6871 11.5775 16.5403 11.029 16.2075 10.595C16.0343 10.3693 15.8085 10.205 15.5535 10.0445C15.4584 9.98829 15.3792 9.90882 15.3233 9.81357C15.2675 9.71832 15.2367 9.61041 15.234 9.5C15.234 9.2915 15.348 9.0845 15.5535 8.9555C15.8085 8.795 16.0335 8.63075 16.2075 8.405C16.3724 8.19014 16.4934 7.9449 16.5635 7.68328C16.6337 7.42166 16.6516 7.14879 16.6163 6.88025C16.5806 6.64978 16.5071 6.42679 16.3988 6.22025C16.2707 5.97106 16.1349 5.72594 15.9915 5.48525L15.9728 5.45225C15.8358 5.20782 15.6912 4.9677 15.5393 4.73225C15.4145 4.53546 15.2582 4.36061 15.0765 4.21475C14.8617 4.04971 14.6165 3.92859 14.3549 3.85833C14.0933 3.78807 13.8204 3.77003 13.5518 3.80525C13.2698 3.84275 13.0148 3.95525 12.7478 4.097C12.6517 4.15089 12.5434 4.17951 12.4332 4.18016C12.3231 4.18082 12.2145 4.15349 12.1178 4.10075C12.0234 4.04339 11.9452 3.96297 11.8905 3.86706C11.8358 3.77116 11.8064 3.66291 11.805 3.5525C11.7938 3.251 11.7645 2.9735 11.655 2.711C11.5514 2.46069 11.3996 2.23323 11.2081 2.04161C11.0166 1.85 10.7893 1.69799 10.539 1.59425C10.3215 1.50425 10.0965 1.469 9.85876 1.45325C9.63076 1.4375 9.35251 1.4375 9.01876 1.4375H8.98126ZM7.89151 2.63375C7.94926 2.60975 8.03701 2.588 8.21776 2.57525C8.40301 2.5625 8.64301 2.5625 9.00001 2.5625C9.35701 2.5625 9.59701 2.5625 9.78226 2.57525C9.96301 2.588 10.0508 2.60975 10.1085 2.63375C10.3388 2.729 10.521 2.91125 10.6163 3.1415C10.6463 3.2135 10.671 3.32675 10.6808 3.5945C10.7033 4.1885 11.01 4.76075 11.5545 5.075C12.099 5.39 12.7478 5.369 13.2735 5.0915C13.5105 4.96625 13.6208 4.931 13.6988 4.92125C13.9452 4.88869 14.1945 4.95532 14.3918 5.1065C14.4413 5.14475 14.5043 5.21 14.6055 5.36C14.7098 5.5145 14.8298 5.72225 15.0083 6.03125C15.1868 6.34025 15.306 6.54875 15.3878 6.71525C15.468 6.878 15.4928 6.965 15.5003 7.02725C15.5328 7.27367 15.4662 7.52294 15.315 7.72025C15.267 7.7825 15.1815 7.8605 14.955 8.003C14.451 8.3195 14.109 8.8715 14.109 9.5C14.109 10.1285 14.451 10.6805 14.955 10.997C15.1815 11.1395 15.267 11.2175 15.315 11.2797C15.4665 11.477 15.5325 11.726 15.5003 11.9727C15.4928 12.035 15.4673 12.1228 15.3878 12.2847C15.306 12.452 15.1868 12.6597 15.0083 12.9688C14.8298 13.2778 14.709 13.4855 14.6055 13.64C14.5043 13.79 14.4413 13.8552 14.3918 13.8935C14.1945 14.0447 13.9452 14.1113 13.6988 14.0787C13.6208 14.069 13.5113 14.0338 13.2735 13.9085C12.7485 13.631 12.099 13.61 11.5545 13.9242C11.01 14.2393 10.7033 14.8115 10.6808 15.4055C10.671 15.6733 10.6463 15.7865 10.6163 15.8585C10.5691 15.9723 10.5001 16.0758 10.4129 16.1629C10.3258 16.25 10.2224 16.3191 10.1085 16.3663C10.0508 16.3903 9.96301 16.412 9.78226 16.4247C9.59701 16.4375 9.35701 16.4375 9.00001 16.4375C8.64301 16.4375 8.40301 16.4375 8.21776 16.4247C8.03701 16.412 7.94926 16.3903 7.89151 16.3663C7.77767 16.3191 7.67422 16.25 7.5871 16.1629C7.49998 16.0758 7.43088 15.9723 7.38376 15.8585C7.35376 15.7865 7.32901 15.6733 7.31926 15.4055C7.29676 14.8115 6.99001 14.2393 6.44551 13.925C5.90101 13.61 5.25226 13.631 4.72651 13.9085C4.48951 14.0338 4.37926 14.069 4.30126 14.0787C4.05484 14.1113 3.80557 14.0447 3.60826 13.8935C3.55876 13.8552 3.49576 13.79 3.39451 13.64C3.25345 13.4204 3.11913 13.1966 2.99176 12.9688C2.81326 12.6597 2.69401 12.4513 2.61226 12.2847C2.53201 12.122 2.50726 12.035 2.49976 11.9727C2.4672 11.7263 2.53384 11.4771 2.68501 11.2797C2.73301 11.2175 2.81851 11.1395 3.04501 10.997C3.54901 10.6805 3.89101 10.1285 3.89101 9.5C3.89101 8.8715 3.54901 8.3195 3.04501 8.003C2.81851 7.8605 2.73301 7.7825 2.68501 7.72025C2.53384 7.52294 2.4672 7.27367 2.49976 7.02725C2.50726 6.965 2.53276 6.87725 2.61226 6.71525C2.69401 6.548 2.81326 6.34025 2.99176 6.03125C3.17026 5.72225 3.29101 5.5145 3.39451 5.36C3.49576 5.21 3.55876 5.14475 3.60826 5.1065C3.80557 4.95532 4.05484 4.88869 4.30126 4.92125C4.37926 4.931 4.48876 4.96625 4.72651 5.0915C5.25151 5.369 5.90101 5.39 6.44551 5.075C6.99001 4.76075 7.29676 4.1885 7.31926 3.5945C7.32901 3.32675 7.35376 3.2135 7.38376 3.1415C7.47901 2.91125 7.66126 2.729 7.89151 2.63375Z"
        fill="#3A3A3A"
        fillOpacity="0.8"
      />
    </svg>
