<svg width="24" height="24" viewBox="0 0 24 24" fill="none" xmlns="http://www.w3.org/2000/svg">
<path d="M11 14H9C9 11.6131 9.94821 9.32387 11.636 7.63604C13.3239 5.94821 15.6131 5 18 5V7C14.13 7 11 10.13 11 14ZM18 11V9C15.24 9 13 11.24 13 14H15C15 12.34 16.34 11 18 11ZM7 4C7 2.89 6.11 2 5 2C3.89 2 3 2.89 3 4C3 5.11 3.89 6 5 6C6.11 6 7 5.11 7 4ZM11.45 4.5H9.45C9.33395 5.19855 8.97375 5.83324 8.43352 6.29106C7.8933 6.74888 7.20812 7.0001 6.5 7H3.5C2.67 7 2 7.67 2 8.5V11H8V8.74C8.92653 8.4478 9.7471 7.89047 10.3603 7.1369C10.9734 6.38333 11.3523 5.46658 11.45 4.5ZM19 17C20.11 17 21 16.11 21 15C21 13.89 20.11 13 19 13C17.89 13 17 13.89 17 15C17 16.11 17.89 17 19 17ZM20.5 18H17.5C16.7919 18.0001 16.1067 17.7489 15.5665 17.2911C15.0263 16.8332 14.666 16.1985 14.55 15.5H12.55C12.6477 16.4666 13.0266 17.3833 13.6397 18.1369C14.2529 18.8905 15.0735 19.4478 16 19.74V22H22V19.5C22 18.67 21.33 18 20.5 18Z" fill="#3A3A3A"/>
</svg>
