<svg width="16" height="16" viewBox="0 0 16 16" fill="none" xmlns="http://www.w3.org/2000/svg">
<path d="M13.0689 5.15687L8.38395 9.76787C8.28173 9.86899 8.14374 9.92572 7.99995 9.92572C7.85616 9.92572 7.71817 9.86899 7.61595 9.76787L2.93095 5.15787C2.82809 5.05679 2.68965 5.00015 2.54545 5.00015C2.40124 5.00015 2.2628 5.05679 2.15995 5.15787C2.1093 5.20724 2.06905 5.26626 2.04156 5.33144C2.01408 5.39661 1.99992 5.46663 1.99992 5.53737C1.99992 5.6081 2.01408 5.67812 2.04156 5.7433C2.06905 5.80847 2.1093 5.86749 2.15995 5.91687L6.84395 10.5269C7.15247 10.8298 7.56757 10.9995 7.99995 10.9995C8.43232 10.9995 8.84743 10.8298 9.15595 10.5269L13.8399 5.91687C13.8907 5.86747 13.9311 5.8084 13.9587 5.74313C13.9863 5.67786 14.0005 5.60772 14.0005 5.53687C14.0005 5.46601 13.9863 5.39588 13.9587 5.33061C13.9311 5.26534 13.8907 5.20626 13.8399 5.15687C13.7371 5.05579 13.5987 4.99915 13.4544 4.99915C13.3102 4.99915 13.1718 5.05579 13.0689 5.15687Z" fill="#3A3A3A"/>
</svg>
