<svg width="18" height="19" viewBox="0 0 18 19" fill="none" xmlns="http://www.w3.org/2000/svg">
<path d="M11.7968 3.41304C12.8723 2.33304 14.4458 2.31054 15.3165 3.18504C16.1895 4.06104 16.1663 5.64504 15.0893 6.72504L13.272 8.54979C13.1697 8.65602 13.1132 8.7982 13.1147 8.94568C13.1162 9.09317 13.1755 9.23418 13.28 9.33833C13.3844 9.44248 13.5256 9.50143 13.6731 9.5025C13.8206 9.50357 13.9626 9.44666 14.0685 9.34404L15.8865 7.51929C17.3198 6.08004 17.4998 3.78279 16.1138 2.39079C14.7263 0.998042 12.4335 1.17954 10.9988 2.61879L7.36427 6.26904C5.93102 7.70829 5.75102 10.0055 7.13702 11.3968C7.18879 11.4506 7.25075 11.4936 7.31931 11.5232C7.38786 11.5529 7.46163 11.5686 7.53631 11.5694C7.61099 11.5702 7.68508 11.5561 7.75427 11.528C7.82346 11.4999 7.88635 11.4583 7.93929 11.4056C7.99222 11.3529 8.03413 11.2902 8.06258 11.2212C8.09102 11.1521 8.10543 11.0781 8.10497 11.0034C8.1045 10.9287 8.08917 10.8549 8.05986 10.7862C8.03055 10.7175 7.98786 10.6553 7.93427 10.6033C7.06127 9.72729 7.08527 8.14329 8.16152 7.06329L11.7968 3.41304Z" fill="#3A3A3A"/>
<path d="M10.8637 7.60246C10.7583 7.49674 10.6152 7.43722 10.4659 7.43701C10.3166 7.4368 10.1733 7.49591 10.0676 7.60133C9.96188 7.70676 9.90237 7.84986 9.90216 7.99916C9.90195 8.14846 9.96105 8.29174 10.0665 8.39746C10.9395 9.27346 10.9162 10.8567 9.83923 11.9375L6.20398 15.587C5.12773 16.667 3.55423 16.6895 2.68348 15.815C1.81048 14.939 1.83448 13.355 2.91073 12.275L4.72873 10.4502C4.78088 10.3979 4.82221 10.3358 4.85036 10.2674C4.87851 10.1991 4.89292 10.1259 4.89278 10.052C4.89264 9.97813 4.87795 9.90499 4.84955 9.83677C4.82114 9.76856 4.77958 9.70661 4.72723 9.65446C4.67488 9.60231 4.61277 9.56098 4.54445 9.53283C4.47613 9.50468 4.40293 9.49026 4.32904 9.4904C4.25515 9.49054 4.18201 9.50523 4.11379 9.53364C4.04558 9.56205 3.98363 9.60361 3.93148 9.65596L2.11348 11.4807C0.680228 12.9207 0.500228 15.2172 1.88623 16.6092C3.27373 18.0027 5.56648 17.8205 7.00123 16.3812L10.6365 12.731C12.0697 11.2925 12.2497 8.99371 10.8637 7.60246Z" fill="#3A3A3A"/>
</svg>
