<svg width="16" height="15" viewBox="0 0 16 15" fill="none" xmlns="http://www.w3.org/2000/svg">
<path d="M14.6952 5.9925C9.73775 5.3115 5.46275 8.9925 5.75 13.875M3.875 4.5C3.875 4.89782 4.03304 5.27936 4.31434 5.56066C4.59564 5.84196 4.97718 6 5.375 6C5.77282 6 6.15436 5.84196 6.43566 5.56066C6.71696 5.27936 6.875 4.89782 6.875 4.5C6.875 4.10218 6.71696 3.72064 6.43566 3.43934C6.15436 3.15804 5.77282 3 5.375 3C4.97718 3 4.59564 3.15804 4.31434 3.43934C4.03304 3.72064 3.875 4.10218 3.875 4.5Z" stroke="#3A3A3A" strokeLinecap="round" strokeLinejoin="round"/>
<path d="M1.25 8.2995C3.335 8.01075 5.20625 9.018 6.218 10.6245" stroke="#3A3A3A" strokeLinecap="round" strokeLinejoin="round"/>
<path d="M1.25 7.5C1.25 4.31775 1.25 2.727 2.2385 1.7385C3.227 0.75 4.8185 0.75 8 0.75C11.1823 0.75 12.773 0.75 13.7615 1.7385C14.75 2.727 14.75 4.3185 14.75 7.5C14.75 10.6823 14.75 12.273 13.7615 13.2615C12.773 14.25 11.1815 14.25 8 14.25C4.81775 14.25 3.227 14.25 2.2385 13.2615C1.25 12.273 1.25 10.6815 1.25 7.5Z" stroke="#3A3A3A" strokeLinecap="round" strokeLinejoin="round"/>
</svg>
