<svg width="18" height="18" viewBox="0 0 18 18" fill="none" xmlns="http://www.w3.org/2000/svg">
<g clip-path="url(#clip0_762_1982)">
<path opacity="0.5" d="M12.75 6.75146C14.3812 6.76046 15.2648 6.83321 15.8408 7.40921C16.5 8.06846 16.5 9.12896 16.5 11.25V12C16.5 14.1217 16.5 15.1822 15.8408 15.8415C15.1823 16.5 14.121 16.5 12 16.5H6C3.879 16.5 2.81775 16.5 2.15925 15.8415C1.5 15.1815 1.5 14.1217 1.5 12V11.25C1.5 9.12896 1.5 8.06846 2.15925 7.40921C2.73525 6.83321 3.61875 6.76046 5.25 6.75146" stroke="black" stroke-width="1.5" stroke-linecap="round"/>
<path d="M9 11.25V1.5M9 1.5L11.25 4.125M9 1.5L6.75 4.125" stroke="black" stroke-width="1.5" stroke-linecap="round" stroke-linejoin="round"/>
</g>
<defs>
<clipPath id="clip0_762_1982">
<rect width="18" height="18" fill="white"/>
</clipPath>
</defs>
</svg>
