<svg width="56" height="68" viewBox="0 0 56 68" fill="none" xmlns="http://www.w3.org/2000/svg">
<g filter="url(#filter0_b_10_278)">
<rect x="4" y="15.5" width="37" height="37" rx="18.5" fill="#313036" fill-opacity="0.3"/>
<rect x="4" y="15.5" width="37" height="37" rx="18.5" fill="url(#paint0_linear_10_278)"/>
<rect x="5" y="16.5" width="35" height="35" rx="17.5" stroke="url(#paint1_linear_10_278)" stroke-width="2"/>
</g>
<g filter="url(#filter1_di_10_278)">
<path d="M29.0824 33.7922C29.0824 35.8874 28.1317 37.8275 26.4924 39.1274C25.8231 39.6512 25.3865 40.3399 25.2507 41.0771L25.2022 41.0674H19.382L19.3141 41.0771C19.1783 40.3108 18.7806 39.6415 18.2083 39.2147C16.0936 37.6141 15.1041 34.995 15.6474 32.3565C16.1809 29.7859 18.2665 27.6906 20.8371 27.1571C22.8838 26.7206 24.9791 27.225 26.57 28.5152C28.1705 29.815 29.0824 31.7357 29.0824 33.7922Z" fill="url(#paint2_radial_10_278)"/>
</g>
<g filter="url(#filter2_di_10_278)">
<path d="M28.6662 28.1455C28.48 28.1455 28.2938 28.0747 28.1521 27.9321C27.8679 27.6479 27.8679 27.1871 28.1521 26.9029L29.4947 25.5604C29.7789 25.2762 30.2396 25.2762 30.5239 25.5604C30.8081 25.8446 30.8081 26.3054 30.5239 26.5896L29.1813 27.9321C29.0387 28.0737 28.8525 28.1455 28.6662 28.1455Z" fill="url(#paint3_radial_10_278)"/>
</g>
<g filter="url(#filter3_di_10_278)">
<path d="M33.2051 34.5197H31.3068C30.9052 34.5197 30.5792 34.1937 30.5792 33.7921C30.5792 33.3905 30.9052 33.0646 31.3068 33.0646H33.2051C33.6067 33.0646 33.9326 33.3905 33.9326 33.7921C33.9326 34.1937 33.6067 34.5197 33.2051 34.5197Z" fill="url(#paint4_radial_10_278)"/>
</g>
<g filter="url(#filter4_di_10_278)">
<path d="M30.0088 42.2363C29.8225 42.2363 29.6363 42.1655 29.4947 42.0229L28.1521 40.6804C27.8679 40.3961 27.8679 39.9354 28.1521 39.6512C28.4364 39.3669 28.8971 39.3669 29.1813 39.6512L30.5239 40.9937C30.8081 41.2779 30.8081 41.7387 30.5239 42.0229C30.3813 42.1655 30.195 42.2363 30.0088 42.2363Z" fill="url(#paint5_radial_10_278)"/>
</g>
<g filter="url(#filter5_di_10_278)">
<path d="M25.2067 41.0683C25.2312 41.0732 25.2472 41.0968 25.2431 41.1214C25.2183 41.2716 25.2022 41.4225 25.2022 41.5815V43.735C25.2022 44.6663 24.4359 45.4326 23.5046 45.4326H21.0796C20.2647 45.4326 19.382 44.8118 19.382 43.4537V41.7367C19.382 41.5355 19.3662 41.3342 19.3275 41.1401C19.3207 41.1061 19.3435 41.0729 19.3778 41.068C19.3806 41.0676 19.3834 41.0674 19.3862 41.0674H25.1977C25.2007 41.0674 25.2037 41.0677 25.2067 41.0683Z" fill="url(#paint6_linear_10_278)"/>
</g>
<g filter="url(#filter6_di_10_278)">
<path d="M22.2921 25.5051C21.8905 25.5051 21.5646 25.1792 21.5646 24.7776V22.8792C21.5646 22.4776 21.8905 22.1517 22.2921 22.1517C22.6937 22.1517 23.0196 22.4776 23.0196 22.8792V24.7776C23.0196 25.1792 22.6937 25.5051 22.2921 25.5051Z" fill="url(#paint7_radial_10_278)"/>
</g>
<g filter="url(#filter7_di_10_278)">
<path d="M15.9181 28.1455C15.7318 28.1455 15.5456 28.0747 15.404 27.9321L14.0614 26.5896C13.7772 26.3054 13.7772 25.8446 14.0614 25.5604C14.3457 25.2762 14.8064 25.2762 15.0906 25.5604L16.4332 26.9029C16.7174 27.1871 16.7174 27.6479 16.4332 27.9321C16.2896 28.0737 16.1043 28.1455 15.9181 28.1455Z" fill="url(#paint8_radial_10_278)"/>
</g>
<g filter="url(#filter8_di_10_278)">
<path d="M13.2776 34.5197H11.3793C10.9777 34.5197 10.6517 34.1937 10.6517 33.7921C10.6517 33.3905 10.9777 33.0646 11.3793 33.0646H13.2776C13.6792 33.0646 14.0052 33.3905 14.0052 33.7921C14.0052 34.1937 13.6792 34.5197 13.2776 34.5197Z" fill="url(#paint9_radial_10_278)"/>
</g>
<g filter="url(#filter9_di_10_278)">
<path d="M14.5756 42.2363C14.3893 42.2363 14.2031 42.1655 14.0614 42.0229C13.7772 41.7387 13.7772 41.2779 14.0614 40.9937L15.404 39.6512C15.6882 39.3669 16.149 39.3669 16.4332 39.6512C16.7174 39.9354 16.7174 40.3961 16.4332 40.6804L15.0906 42.0229C14.948 42.1655 14.7618 42.2363 14.5756 42.2363Z" fill="url(#paint10_radial_10_278)"/>
</g>
<defs>
<filter id="filter0_b_10_278" x="0" y="11.5" width="45" height="45" filterUnits="userSpaceOnUse" color-interpolation-filters="sRGB">
<feFlood flood-opacity="0" result="BackgroundImageFix"/>
<feGaussianBlur in="BackgroundImageFix" stdDeviation="2"/>
<feComposite in2="SourceAlpha" operator="in" result="effect1_backgroundBlur_10_278"/>
<feBlend mode="normal" in="SourceGraphic" in2="effect1_backgroundBlur_10_278" result="shape"/>
</filter>
<filter id="filter1_di_10_278" x="5.50061" y="5.00323" width="45.5818" height="46.0739" filterUnits="userSpaceOnUse" color-interpolation-filters="sRGB">
<feFlood flood-opacity="0" result="BackgroundImageFix"/>
<feColorMatrix in="SourceAlpha" type="matrix" values="0 0 0 0 0 0 0 0 0 0 0 0 0 0 0 0 0 0 127 0" result="hardAlpha"/>
<feOffset dx="6" dy="-6"/>
<feGaussianBlur stdDeviation="8"/>
<feColorMatrix type="matrix" values="0 0 0 0 1 0 0 0 0 0.670588 0 0 0 0 0.282353 0 0 0 0.2 0"/>
<feBlend mode="normal" in2="BackgroundImageFix" result="effect1_dropShadow_10_278"/>
<feBlend mode="normal" in="SourceGraphic" in2="effect1_dropShadow_10_278" result="shape"/>
<feColorMatrix in="SourceAlpha" type="matrix" values="0 0 0 0 0 0 0 0 0 0 0 0 0 0 0 0 0 0 127 0" result="hardAlpha"/>
<feOffset dx="-10" dy="10"/>
<feGaussianBlur stdDeviation="10"/>
<feComposite in2="hardAlpha" operator="arithmetic" k2="-1" k3="1"/>
<feColorMatrix type="matrix" values="0 0 0 0 1 0 0 0 0 1 0 0 0 0 1 0 0 0 0.24 0"/>
<feBlend mode="normal" in2="shape" result="effect2_innerShadow_10_278"/>
</filter>
<filter id="filter2_di_10_278" x="17.939" y="3.34721" width="34.7981" height="34.7983" filterUnits="userSpaceOnUse" color-interpolation-filters="sRGB">
<feFlood flood-opacity="0" result="BackgroundImageFix"/>
<feColorMatrix in="SourceAlpha" type="matrix" values="0 0 0 0 0 0 0 0 0 0 0 0 0 0 0 0 0 0 127 0" result="hardAlpha"/>
<feOffset dx="6" dy="-6"/>
<feGaussianBlur stdDeviation="8"/>
<feColorMatrix type="matrix" values="0 0 0 0 1 0 0 0 0 0.670588 0 0 0 0 0.282353 0 0 0 0.2 0"/>
<feBlend mode="normal" in2="BackgroundImageFix" result="effect1_dropShadow_10_278"/>
<feBlend mode="normal" in="SourceGraphic" in2="effect1_dropShadow_10_278" result="shape"/>
<feColorMatrix in="SourceAlpha" type="matrix" values="0 0 0 0 0 0 0 0 0 0 0 0 0 0 0 0 0 0 127 0" result="hardAlpha"/>
<feOffset dx="-10" dy="10"/>
<feGaussianBlur stdDeviation="10"/>
<feComposite in2="hardAlpha" operator="arithmetic" k2="-1" k3="1"/>
<feColorMatrix type="matrix" values="0 0 0 0 1 0 0 0 0 1 0 0 0 0 1 0 0 0 0.24 0"/>
<feBlend mode="normal" in2="shape" result="effect2_innerShadow_10_278"/>
</filter>
<filter id="filter3_di_10_278" x="20.5792" y="11.0646" width="35.3534" height="33.4551" filterUnits="userSpaceOnUse" color-interpolation-filters="sRGB">
<feFlood flood-opacity="0" result="BackgroundImageFix"/>
<feColorMatrix in="SourceAlpha" type="matrix" values="0 0 0 0 0 0 0 0 0 0 0 0 0 0 0 0 0 0 127 0" result="hardAlpha"/>
<feOffset dx="6" dy="-6"/>
<feGaussianBlur stdDeviation="8"/>
<feColorMatrix type="matrix" values="0 0 0 0 1 0 0 0 0 0.670588 0 0 0 0 0.282353 0 0 0 0.2 0"/>
<feBlend mode="normal" in2="BackgroundImageFix" result="effect1_dropShadow_10_278"/>
<feBlend mode="normal" in="SourceGraphic" in2="effect1_dropShadow_10_278" result="shape"/>
<feColorMatrix in="SourceAlpha" type="matrix" values="0 0 0 0 0 0 0 0 0 0 0 0 0 0 0 0 0 0 127 0" result="hardAlpha"/>
<feOffset dx="-10" dy="10"/>
<feGaussianBlur stdDeviation="10"/>
<feComposite in2="hardAlpha" operator="arithmetic" k2="-1" k3="1"/>
<feColorMatrix type="matrix" values="0 0 0 0 1 0 0 0 0 1 0 0 0 0 1 0 0 0 0.24 0"/>
<feBlend mode="normal" in2="shape" result="effect2_innerShadow_10_278"/>
</filter>
<filter id="filter4_di_10_278" x="17.939" y="17.438" width="34.7981" height="34.7983" filterUnits="userSpaceOnUse" color-interpolation-filters="sRGB">
<feFlood flood-opacity="0" result="BackgroundImageFix"/>
<feColorMatrix in="SourceAlpha" type="matrix" values="0 0 0 0 0 0 0 0 0 0 0 0 0 0 0 0 0 0 127 0" result="hardAlpha"/>
<feOffset dx="6" dy="-6"/>
<feGaussianBlur stdDeviation="8"/>
<feColorMatrix type="matrix" values="0 0 0 0 1 0 0 0 0 0.670588 0 0 0 0 0.282353 0 0 0 0.2 0"/>
<feBlend mode="normal" in2="BackgroundImageFix" result="effect1_dropShadow_10_278"/>
<feBlend mode="normal" in="SourceGraphic" in2="effect1_dropShadow_10_278" result="shape"/>
<feColorMatrix in="SourceAlpha" type="matrix" values="0 0 0 0 0 0 0 0 0 0 0 0 0 0 0 0 0 0 127 0" result="hardAlpha"/>
<feOffset dx="-10" dy="10"/>
<feGaussianBlur stdDeviation="10"/>
<feComposite in2="hardAlpha" operator="arithmetic" k2="-1" k3="1"/>
<feColorMatrix type="matrix" values="0 0 0 0 1 0 0 0 0 1 0 0 0 0 1 0 0 0 0.24 0"/>
<feBlend mode="normal" in2="shape" result="effect2_innerShadow_10_278"/>
</filter>
<filter id="filter5_di_10_278" x="9.32629" y="31.0674" width="37.9175" height="36.3652" filterUnits="userSpaceOnUse" color-interpolation-filters="sRGB">
<feFlood flood-opacity="0" result="BackgroundImageFix"/>
<feColorMatrix in="SourceAlpha" type="matrix" values="0 0 0 0 0 0 0 0 0 0 0 0 0 0 0 0 0 0 127 0" result="hardAlpha"/>
<feOffset dx="6" dy="6"/>
<feGaussianBlur stdDeviation="8"/>
<feColorMatrix type="matrix" values="0 0 0 0 0.67451 0 0 0 0 0.686275 0 0 0 0 0.815686 0 0 0 0.35 0"/>
<feBlend mode="normal" in2="BackgroundImageFix" result="effect1_dropShadow_10_278"/>
<feBlend mode="normal" in="SourceGraphic" in2="effect1_dropShadow_10_278" result="shape"/>
<feColorMatrix in="SourceAlpha" type="matrix" values="0 0 0 0 0 0 0 0 0 0 0 0 0 0 0 0 0 0 127 0" result="hardAlpha"/>
<feOffset dx="-10" dy="-10"/>
<feGaussianBlur stdDeviation="10"/>
<feComposite in2="hardAlpha" operator="arithmetic" k2="-1" k3="1"/>
<feColorMatrix type="matrix" values="0 0 0 0 1 0 0 0 0 1 0 0 0 0 1 0 0 0 0.24 0"/>
<feBlend mode="normal" in2="shape" result="effect2_innerShadow_10_278"/>
</filter>
<filter id="filter6_di_10_278" x="11.5646" y="0.151688" width="33.4551" height="35.3534" filterUnits="userSpaceOnUse" color-interpolation-filters="sRGB">
<feFlood flood-opacity="0" result="BackgroundImageFix"/>
<feColorMatrix in="SourceAlpha" type="matrix" values="0 0 0 0 0 0 0 0 0 0 0 0 0 0 0 0 0 0 127 0" result="hardAlpha"/>
<feOffset dx="6" dy="-6"/>
<feGaussianBlur stdDeviation="8"/>
<feColorMatrix type="matrix" values="0 0 0 0 1 0 0 0 0 0.670588 0 0 0 0 0.282353 0 0 0 0.2 0"/>
<feBlend mode="normal" in2="BackgroundImageFix" result="effect1_dropShadow_10_278"/>
<feBlend mode="normal" in="SourceGraphic" in2="effect1_dropShadow_10_278" result="shape"/>
<feColorMatrix in="SourceAlpha" type="matrix" values="0 0 0 0 0 0 0 0 0 0 0 0 0 0 0 0 0 0 127 0" result="hardAlpha"/>
<feOffset dx="-10" dy="10"/>
<feGaussianBlur stdDeviation="10"/>
<feComposite in2="hardAlpha" operator="arithmetic" k2="-1" k3="1"/>
<feColorMatrix type="matrix" values="0 0 0 0 1 0 0 0 0 1 0 0 0 0 1 0 0 0 0.24 0"/>
<feBlend mode="normal" in2="shape" result="effect2_innerShadow_10_278"/>
</filter>
<filter id="filter7_di_10_278" x="3.84827" y="3.34721" width="34.7981" height="34.7983" filterUnits="userSpaceOnUse" color-interpolation-filters="sRGB">
<feFlood flood-opacity="0" result="BackgroundImageFix"/>
<feColorMatrix in="SourceAlpha" type="matrix" values="0 0 0 0 0 0 0 0 0 0 0 0 0 0 0 0 0 0 127 0" result="hardAlpha"/>
<feOffset dx="6" dy="-6"/>
<feGaussianBlur stdDeviation="8"/>
<feColorMatrix type="matrix" values="0 0 0 0 1 0 0 0 0 0.670588 0 0 0 0 0.282353 0 0 0 0.2 0"/>
<feBlend mode="normal" in2="BackgroundImageFix" result="effect1_dropShadow_10_278"/>
<feBlend mode="normal" in="SourceGraphic" in2="effect1_dropShadow_10_278" result="shape"/>
<feColorMatrix in="SourceAlpha" type="matrix" values="0 0 0 0 0 0 0 0 0 0 0 0 0 0 0 0 0 0 127 0" result="hardAlpha"/>
<feOffset dx="-10" dy="10"/>
<feGaussianBlur stdDeviation="10"/>
<feComposite in2="hardAlpha" operator="arithmetic" k2="-1" k3="1"/>
<feColorMatrix type="matrix" values="0 0 0 0 1 0 0 0 0 1 0 0 0 0 1 0 0 0 0.24 0"/>
<feBlend mode="normal" in2="shape" result="effect2_innerShadow_10_278"/>
</filter>
<filter id="filter8_di_10_278" x="0.651733" y="11.0646" width="35.3534" height="33.4551" filterUnits="userSpaceOnUse" color-interpolation-filters="sRGB">
<feFlood flood-opacity="0" result="BackgroundImageFix"/>
<feColorMatrix in="SourceAlpha" type="matrix" values="0 0 0 0 0 0 0 0 0 0 0 0 0 0 0 0 0 0 127 0" result="hardAlpha"/>
<feOffset dx="6" dy="-6"/>
<feGaussianBlur stdDeviation="8"/>
<feColorMatrix type="matrix" values="0 0 0 0 1 0 0 0 0 0.670588 0 0 0 0 0.282353 0 0 0 0.2 0"/>
<feBlend mode="normal" in2="BackgroundImageFix" result="effect1_dropShadow_10_278"/>
<feBlend mode="normal" in="SourceGraphic" in2="effect1_dropShadow_10_278" result="shape"/>
<feColorMatrix in="SourceAlpha" type="matrix" values="0 0 0 0 0 0 0 0 0 0 0 0 0 0 0 0 0 0 127 0" result="hardAlpha"/>
<feOffset dx="-10" dy="10"/>
<feGaussianBlur stdDeviation="10"/>
<feComposite in2="hardAlpha" operator="arithmetic" k2="-1" k3="1"/>
<feColorMatrix type="matrix" values="0 0 0 0 1 0 0 0 0 1 0 0 0 0 1 0 0 0 0.24 0"/>
<feBlend mode="normal" in2="shape" result="effect2_innerShadow_10_278"/>
</filter>
<filter id="filter9_di_10_278" x="3.84827" y="17.438" width="34.7981" height="34.7983" filterUnits="userSpaceOnUse" color-interpolation-filters="sRGB">
<feFlood flood-opacity="0" result="BackgroundImageFix"/>
<feColorMatrix in="SourceAlpha" type="matrix" values="0 0 0 0 0 0 0 0 0 0 0 0 0 0 0 0 0 0 127 0" result="hardAlpha"/>
<feOffset dx="6" dy="-6"/>
<feGaussianBlur stdDeviation="8"/>
<feColorMatrix type="matrix" values="0 0 0 0 1 0 0 0 0 0.670588 0 0 0 0 0.282353 0 0 0 0.2 0"/>
<feBlend mode="normal" in2="BackgroundImageFix" result="effect1_dropShadow_10_278"/>
<feBlend mode="normal" in="SourceGraphic" in2="effect1_dropShadow_10_278" result="shape"/>
<feColorMatrix in="SourceAlpha" type="matrix" values="0 0 0 0 0 0 0 0 0 0 0 0 0 0 0 0 0 0 127 0" result="hardAlpha"/>
<feOffset dx="-10" dy="10"/>
<feGaussianBlur stdDeviation="10"/>
<feComposite in2="hardAlpha" operator="arithmetic" k2="-1" k3="1"/>
<feColorMatrix type="matrix" values="0 0 0 0 1 0 0 0 0 1 0 0 0 0 1 0 0 0 0.24 0"/>
<feBlend mode="normal" in2="shape" result="effect2_innerShadow_10_278"/>
</filter>
<linearGradient id="paint0_linear_10_278" x1="5.82138" y1="17.5537" x2="22.5" y2="34.74" gradientUnits="userSpaceOnUse">
<stop stop-color="#B1B1B1" stop-opacity="0.32"/>
<stop offset="1" stop-color="#363567" stop-opacity="0.2"/>
</linearGradient>
<linearGradient id="paint1_linear_10_278" x1="-3.79467" y1="12.8344" x2="6.22955" y2="60.0463" gradientUnits="userSpaceOnUse">
<stop stop-color="white" stop-opacity="0.2"/>
<stop offset="1" stop-color="white" stop-opacity="0"/>
</linearGradient>
<radialGradient id="paint2_radial_10_278" cx="0" cy="0" r="1" gradientUnits="userSpaceOnUse" gradientTransform="translate(18.6349 25.9206) rotate(64.242) scale(9.61638 9.40942)">
<stop stop-color="#FFE974"/>
<stop offset="1" stop-color="#FFAB48"/>
</radialGradient>
<radialGradient id="paint3_radial_10_278" cx="0" cy="0" r="1" gradientUnits="userSpaceOnUse" gradientTransform="translate(28.5847 25.132) rotate(63.437) scale(1.92526 1.92516)">
<stop stop-color="#FFE974"/>
<stop offset="1" stop-color="#FFAB48"/>
</radialGradient>
<radialGradient id="paint4_radial_10_278" cx="0" cy="0" r="1" gradientUnits="userSpaceOnUse" gradientTransform="translate(31.3531 32.9527) rotate(40.9516) scale(1.36617 1.69069)">
<stop stop-color="#FFE974"/>
<stop offset="1" stop-color="#FFAB48"/>
</radialGradient>
<radialGradient id="paint5_radial_10_278" cx="0" cy="0" r="1" gradientUnits="userSpaceOnUse" gradientTransform="translate(28.5847 39.2227) rotate(63.437) scale(1.92526 1.92516)">
<stop stop-color="#FFE974"/>
<stop offset="1" stop-color="#FFAB48"/>
</radialGradient>
<linearGradient id="paint6_linear_10_278" x1="19.5614" y1="41.0674" x2="20.737" y2="45.8152" gradientUnits="userSpaceOnUse">
<stop stop-color="#D7DDE8"/>
<stop offset="1" stop-color="#ACAFD0"/>
</linearGradient>
<radialGradient id="paint7_radial_10_278" cx="0" cy="0" r="1" gradientUnits="userSpaceOnUse" gradientTransform="translate(21.9004 21.8937) rotate(77.7593) scale(2.11165 1.09383)">
<stop stop-color="#FFE974"/>
<stop offset="1" stop-color="#FFAB48"/>
</radialGradient>
<radialGradient id="paint8_radial_10_278" cx="0" cy="0" r="1" gradientUnits="userSpaceOnUse" gradientTransform="translate(14.494 25.132) rotate(63.4369) scale(1.92527 1.92516)">
<stop stop-color="#FFE974"/>
<stop offset="1" stop-color="#FFAB48"/>
</radialGradient>
<radialGradient id="paint9_radial_10_278" cx="0" cy="0" r="1" gradientUnits="userSpaceOnUse" gradientTransform="translate(11.4256 32.9527) rotate(40.9516) scale(1.36617 1.69069)">
<stop stop-color="#FFE974"/>
<stop offset="1" stop-color="#FFAB48"/>
</radialGradient>
<radialGradient id="paint10_radial_10_278" cx="0" cy="0" r="1" gradientUnits="userSpaceOnUse" gradientTransform="translate(14.494 39.2227) rotate(63.4369) scale(1.92526 1.92516)">
<stop stop-color="#FFE974"/>
<stop offset="1" stop-color="#FFAB48"/>
</radialGradient>
</defs>
</svg>
